<svg width="35" height="18" viewBox="0 0 35 18" fill="none" xmlns="http://www.w3.org/2000/svg">
<path d="M9 12C8.175 12 7.46875 11.7062 6.88125 11.1187C6.29375 10.5312 6 9.825 6 9C6 8.175 6.29375 7.46875 6.88125 6.88125C7.46875 6.29375 8.175 6 9 6C9.825 6 10.5312 6.29375 11.1188 6.88125C11.7063 7.46875 12 8.175 12 9C12 9.825 11.7063 10.5312 11.1188 11.1187C10.5312 11.7062 9.825 12 9 12ZM9 18C6.5 18 4.375 17.125 2.625 15.375C0.875 13.625 0 11.5 0 9C0 6.5 0.875 4.375 2.625 2.625C4.375 0.875 6.5 0 9 0C10.675 0 12.1938 0.412498 13.5563 1.2375C14.9188 2.0625 16 3.15 16.8 4.5H30L34.5 9L27.75 15.75L24.75 13.5L21.75 15.75L18.5625 13.5H16.8C16 14.85 14.9188 15.9375 13.5563 16.7625C12.1938 17.5875 10.675 18 9 18ZM9 15C10.4 15 11.6313 14.575 12.6938 13.725C13.7563 12.875 14.4625 11.8 14.8125 10.5H19.5L21.675 12.0375L24.75 9.75L27.4125 11.8125L30.225 9L28.725 7.5H14.8125C14.4625 6.2 13.7563 5.125 12.6938 4.275C11.6313 3.425 10.4 3 9 3C7.35 3 5.9375 3.5875 4.7625 4.7625C3.5875 5.9375 3 7.35 3 9C3 10.65 3.5875 12.0625 4.7625 13.2375C5.9375 14.4125 7.35 15 9 15Z" fill="#A3E635"/>
</svg>
